<svg xmlns="http://www.w3.org/2000/svg" xmlns:xlink="http://www.w3.org/1999/xlink" width="500" zoomAndPan="magnify" viewBox="0 0 375 374.999991" height="500" preserveAspectRatio="xMidYMid meet" version="1.0"><defs><g/></defs><g fill="#0db2b2" fill-opacity="1"><g transform="translate(57.574373, 206.999986)"><g><path d="M 20.253906 -30.890625 C 16.226562 -30.890625 13.101562 -29.386719 11.296875 -26.683594 L 11.296875 -30.046875 L 3.546875 -30.046875 L 3.546875 0 L 11.296875 0 L 11.296875 -16.226562 C 11.296875 -21.453125 14.121094 -23.679688 17.910156 -23.679688 C 21.394531 -23.679688 23.859375 -21.574219 23.859375 -17.488281 L 23.859375 0 L 31.609375 0 L 31.609375 -18.449219 C 31.609375 -26.441406 26.625 -30.890625 20.253906 -30.890625 Z M 20.253906 -30.890625 "/></g></g></g><g fill="#0db2b2" fill-opacity="1"><g transform="translate(92.248504, 206.999986)"><g><path d="M 10.097656 -11.839844 L 32.753906 -11.839844 C 32.933594 -12.859375 33.054688 -13.882812 33.054688 -15.023438 C 33.054688 -23.859375 26.742188 -30.890625 17.847656 -30.890625 C 8.414062 -30.890625 1.984375 -23.980469 1.984375 -15.023438 C 1.984375 -6.070312 8.355469 0.839844 18.449219 0.839844 C 24.21875 0.839844 28.726562 -1.503906 31.550781 -5.589844 L 25.300781 -9.195312 C 23.980469 -7.453125 21.574219 -6.191406 18.570312 -6.191406 C 14.484375 -6.191406 11.179688 -7.871094 10.097656 -11.839844 Z M 9.976562 -17.847656 C 10.878906 -21.695312 13.703125 -23.917969 17.847656 -23.917969 C 21.09375 -23.917969 24.339844 -22.175781 25.300781 -17.847656 Z M 9.976562 -17.847656 "/></g></g></g><g fill="#0db2b2" fill-opacity="1"><g transform="translate(127.163007, 206.999986)"><g><path d="M 37.378906 -30.046875 L 32.273438 -11.539062 L 26.804688 -30.046875 L 19.472656 -30.046875 L 14.003906 -11.597656 L 8.894531 -30.046875 L 0.660156 -30.046875 L 10.214844 0 L 17.609375 0 L 23.136719 -18.210938 L 28.667969 0 L 36.058594 0 L 45.613281 -30.046875 Z M 37.378906 -30.046875 "/></g></g></g><g fill="#ffffff" fill-opacity="1"><g transform="translate(173.425928, 206.999986)"><g><path d="M 11.296875 -24.878906 L 11.296875 -30.046875 L 3.546875 -30.046875 L 3.546875 0 L 11.296875 0 L 11.296875 -14.363281 C 11.296875 -20.671875 16.40625 -22.476562 20.433594 -21.996094 L 20.433594 -30.648438 C 16.648438 -30.648438 12.859375 -28.96875 11.296875 -24.878906 Z M 11.296875 -24.878906 "/></g></g></g><g fill="#ffffff" fill-opacity="1"><g transform="translate(194.819329, 206.999986)"><g><path d="M 17.847656 0.839844 C 26.683594 0.839844 33.773438 -6.070312 33.773438 -15.023438 C 33.773438 -23.980469 26.683594 -30.890625 17.847656 -30.890625 C 9.015625 -30.890625 1.984375 -23.980469 1.984375 -15.023438 C 1.984375 -6.070312 9.015625 0.839844 17.847656 0.839844 Z M 17.847656 -6.730469 C 13.28125 -6.730469 9.734375 -10.15625 9.734375 -15.023438 C 9.734375 -19.890625 13.28125 -23.316406 17.847656 -23.316406 C 22.476562 -23.316406 26.023438 -19.890625 26.023438 -15.023438 C 26.023438 -10.15625 22.476562 -6.730469 17.847656 -6.730469 Z M 17.847656 -6.730469 "/></g></g></g><g fill="#ffffff" fill-opacity="1"><g transform="translate(230.51505, 206.999986)"><g><path d="M 17.847656 0.839844 C 26.683594 0.839844 33.773438 -6.070312 33.773438 -15.023438 C 33.773438 -23.980469 26.683594 -30.890625 17.847656 -30.890625 C 9.015625 -30.890625 1.984375 -23.980469 1.984375 -15.023438 C 1.984375 -6.070312 9.015625 0.839844 17.847656 0.839844 Z M 17.847656 -6.730469 C 13.28125 -6.730469 9.734375 -10.15625 9.734375 -15.023438 C 9.734375 -19.890625 13.28125 -23.316406 17.847656 -23.316406 C 22.476562 -23.316406 26.023438 -19.890625 26.023438 -15.023438 C 26.023438 -10.15625 22.476562 -6.730469 17.847656 -6.730469 Z M 17.847656 -6.730469 "/></g></g></g><g fill="#ffffff" fill-opacity="1"><g transform="translate(266.210772, 206.999986)"><g><path d="M 36.78125 -30.890625 C 32.691406 -30.890625 29.6875 -29.265625 27.824219 -26.5625 C 26.140625 -29.328125 23.378906 -30.890625 19.652344 -30.890625 C 15.804688 -30.890625 12.980469 -29.386719 11.296875 -26.863281 L 11.296875 -30.046875 L 3.546875 -30.046875 L 3.546875 0 L 11.296875 0 L 11.296875 -16.886719 C 11.296875 -21.394531 13.640625 -23.679688 16.949219 -23.679688 C 20.191406 -23.679688 21.996094 -21.515625 21.996094 -17.96875 L 21.996094 0 L 29.75 0 L 29.75 -16.886719 C 29.75 -21.394531 31.910156 -23.679688 35.335938 -23.679688 C 38.582031 -23.679688 40.386719 -21.515625 40.386719 -17.96875 L 40.386719 0 L 48.136719 0 L 48.136719 -18.511719 C 48.136719 -26.023438 43.628906 -30.890625 36.78125 -30.890625 Z M 36.78125 -30.890625 "/></g></g></g></svg>