<svg version="1.2" xmlns="http://www.w3.org/2000/svg" viewBox="0 0 254 32" width="254" height="32"><style>.a{fill:#0db2b2}.b{fill:#fff}</style><path class="a" d="m16.8 0.1c-4 0-7.1 1.5-8.9 4.2v-3.3h-7.8v30h7.8v-16.2c0-5.3 2.8-7.5 6.6-7.5 3.5 0 5.9 2.1 5.9 6.2v17.5h7.8v-18.4c0-8-5-12.5-11.4-12.5z"/><path fill-rule="evenodd" class="a" d="m49.8 24.8c3 0 5.4-1.3 6.7-3l6.3 3.6c-2.8 4.1-7.3 6.4-13.1 6.4-10.1 0-16.5-6.9-16.5-15.8 0-9 6.5-15.9 15.9-15.9 8.9 0 15.2 7 15.2 15.9 0 1.1-0.1 2.1-0.3 3.2h-22.7c1.1 3.9 4.4 5.6 8.5 5.6zm6.7-11.6c-0.9-4.4-4.2-6.1-7.4-6.1-4.1 0-7 2.2-7.9 6.1z"/><path class="a" d="m103.5 1l-5.1 18.5-5.4-18.5h-7.4l-5.4 18.4-5.1-18.4h-8.3l9.6 30h7.4l5.5-18.2 5.5 18.2h7.4l9.6-30z"/><path class="b" d="m123.7 6.1v-5.1h-7.7v30h7.7v-14.4c0-6.3 5.1-8.1 9.2-7.6v-8.6c-3.8 0-7.6 1.6-9.2 5.7z"/><path fill-rule="evenodd" class="b" d="m135.8 16c0-9 7-15.9 15.9-15.9 8.8 0 15.9 6.9 15.9 15.9 0 8.9-7.1 15.8-15.9 15.8-8.9 0-15.9-6.9-15.9-15.8zm24 0c0-4.9-3.5-8.3-8.1-8.3-4.6 0-8.1 3.4-8.1 8.3 0 4.8 3.5 8.3 8.1 8.3 4.6 0 8.1-3.5 8.1-8.3z"/><path fill-rule="evenodd" class="b" d="m171.5 16c0-9 7-15.9 15.9-15.9 8.8 0 15.9 6.9 15.9 15.9 0 8.9-7.1 15.8-15.9 15.8-8.9 0-15.9-6.9-15.9-15.8zm24 0c0-4.9-3.5-8.3-8.1-8.3-4.6 0-8.2 3.4-8.2 8.3 0 4.8 3.6 8.3 8.2 8.3 4.6 0 8.1-3.5 8.1-8.3z"/><path class="b" d="m242 0.1c-4.1 0-7.1 1.6-9 4.3-1.6-2.7-4.4-4.3-8.1-4.3-3.9 0-6.7 1.5-8.4 4v-3.1h-7.7v30h7.7v-16.9c0-4.5 2.4-6.8 5.7-6.8 3.2 0 5 2.2 5 5.7v18h7.8v-16.9c0-4.5 2.1-6.8 5.5-6.8 3.3 0 5.1 2.2 5.1 5.7v18h7.7v-18.5c0-7.5-4.5-12.4-11.3-12.4z"/></svg>